<svg width="32" height="32" viewBox="0 0 32 32" fill="none" xmlns="http://www.w3.org/2000/svg">
<circle cx="16" cy="16" r="16" fill="#EBF1FF"/>
<path fill-rule="evenodd" clip-rule="evenodd" d="M24.4806 8.8496C24.4071 8.57064 24.1893 8.35277 23.9103 8.27928C20.5613 7.40943 17.0101 8.53617 14.7752 11.1777L13.8832 12.2368L11.7994 11.734C10.7518 11.3688 9.59536 11.8323 9.09 12.8199L7.32984 15.9398C7.20477 16.1615 7.19261 16.4294 7.29711 16.6614C7.4016 16.8935 7.61028 17.062 7.85914 17.1152L10.3173 17.6421C10.1091 18.276 9.96042 18.9279 9.8732 19.5894C9.84116 19.8357 9.92529 20.0829 10.1009 20.2586L12.581 22.7386C12.731 22.8887 12.9344 22.973 13.1466 22.973C13.1697 22.973 13.1927 22.9719 13.2161 22.9699C13.8924 22.9091 14.5605 22.7777 15.2094 22.5779L15.7243 24.9805C15.7777 25.2292 15.9462 25.4378 16.1782 25.5423C16.4102 25.6468 16.6781 25.6347 16.8997 25.5097L20.024 23.7476C20.9262 23.1994 21.3708 22.1311 21.124 21.1047L20.589 18.8975L21.5786 17.9875C24.2307 15.7583 25.3606 12.2004 24.4806 8.8496ZM9.25781 15.7786L10.5027 13.5708C10.6633 13.2596 11.0388 13.1278 11.3586 13.2704L12.7325 13.6033L12.2125 14.2208C11.7195 14.8116 11.2931 15.455 10.9411 16.1393L9.25781 15.7786ZM17.0614 23.5816L19.234 22.3563C19.5194 22.1581 19.6518 21.8035 19.5661 21.4668L19.2433 20.1351L18.6485 20.682C18.0632 21.195 17.4143 21.6305 16.7178 21.9779L17.0614 23.5816ZM20.5251 16.7841L17.5775 19.493C16.4107 20.5021 14.9716 21.1434 13.4412 21.3364L11.5177 19.413C11.7761 17.8785 12.4391 16.4408 13.4384 15.2482L14.7811 13.654C14.8035 13.6306 14.8243 13.6058 14.8436 13.5798L15.9916 12.2169C17.7196 10.1759 20.4119 9.22238 23.0392 9.72076C23.5498 12.3573 22.5868 15.063 20.5251 16.7841ZM18.5869 13.0531C18.5869 12.3903 19.1242 11.8531 19.7869 11.8531L19.7869 11.8531C20.1052 11.853 20.4104 11.9795 20.6355 12.2045C20.8605 12.4296 20.9869 12.7348 20.9869 13.0531C20.9869 13.7158 20.4497 14.2531 19.7869 14.2531C19.1242 14.2531 18.5869 13.7158 18.5869 13.0531Z" fill="#235AF9"/>
</svg>
